<?xml version="1.0" encoding="utf-8" standalone="no"?>
<!DOCTYPE svg PUBLIC "-//W3C//DTD SVG 1.1//EN"
  "http://www.w3.org/Graphics/SVG/1.1/DTD/svg11.dtd">
<svg xmlns:xlink="http://www.w3.org/1999/xlink" width="336.511083pt" height="205.225132pt" viewBox="0 0 336.511083 205.225132" xmlns="http://www.w3.org/2000/svg" version="1.1">
 <metadata>
  <rdf:RDF xmlns:dc="http://purl.org/dc/elements/1.1/" xmlns:cc="http://creativecommons.org/ns#" xmlns:rdf="http://www.w3.org/1999/02/22-rdf-syntax-ns#">
   <cc:Work>
    <dc:type rdf:resource="http://purl.org/dc/dcmitype/StillImage"/>
    <dc:date>2025-11-12T09:19:55.673903</dc:date>
    <dc:format>image/svg+xml</dc:format>
    <dc:creator>
     <cc:Agent>
      <dc:title>Matplotlib v3.6.3, https://matplotlib.org/</dc:title>
     </cc:Agent>
    </dc:creator>
   </cc:Work>
  </rdf:RDF>
 </metadata>
 <defs>
  <style type="text/css">*{stroke-linejoin: round; stroke-linecap: butt}</style>
 </defs>
 <g id="figure_1">
  <g id="patch_1">
   <path d="M 0 205.225132 
L 336.511083 205.225132 
L 336.511083 0 
L 0 0 
z
" style="fill: #ffffff"/>
  </g>
  <g id="axes_1">
   <g id="patch_2">
    <path d="M 46.344732 171.084908 
L 329.311083 171.084908 
L 329.311083 7.2 
L 46.344732 7.2 
z
" style="fill: #ffffff"/>
   </g>
   <g id="matplotlib.axis_1">
    <g id="xtick_1">
     <g id="line2d_1">
      <path d="M 59.206839 171.084908 
L 59.206839 7.2 
" clip-path="url(#pa661e57cec)" style="fill: none; stroke: #b0b0b0; stroke-width: 0.8; stroke-linecap: square"/>
     </g>
     <g id="line2d_2">
      <defs>
       <path id="m84e00b5be1" d="M 0 0 
L 0 3.5 
" style="stroke: #000000; stroke-width: 0.8"/>
      </defs>
      <g>
       <use xlink:href="#m84e00b5be1" x="59.206839" y="171.084908" style="stroke: #000000; stroke-width: 0.8"/>
      </g>
     </g>
     <g id="text_1">
      <!-- $\mathdefault{0}$ -->
      <g transform="translate(57.089747 183.619709) scale(0.08 -0.08)">
       <defs>
        <path id="CMR17-30" d="M 2688 2038 
C 2688 2430 2682 3099 2413 3613 
C 2176 4063 1798 4224 1466 4224 
C 1158 4224 768 4082 525 3620 
C 269 3137 243 2539 243 2038 
C 243 1671 250 1112 448 623 
C 723 -39 1216 -128 1466 -128 
C 1760 -128 2208 -7 2470 604 
C 2662 1048 2688 1568 2688 2038 
z
M 1466 -26 
C 1056 -26 813 328 723 816 
C 653 1196 653 1749 653 2109 
C 653 2604 653 3015 736 3407 
C 858 3954 1216 4121 1466 4121 
C 1728 4121 2067 3947 2189 3420 
C 2272 3054 2278 2623 2278 2109 
C 2278 1691 2278 1176 2202 797 
C 2067 96 1690 -26 1466 -26 
z
" transform="scale(0.015625)"/>
       </defs>
       <use xlink:href="#CMR17-30" transform="scale(0.996264)"/>
      </g>
     </g>
    </g>
    <g id="xtick_2">
     <g id="line2d_3">
      <path d="M 92.1866 171.084908 
L 92.1866 7.2 
" clip-path="url(#pa661e57cec)" style="fill: none; stroke: #b0b0b0; stroke-width: 0.8; stroke-linecap: square"/>
     </g>
     <g id="line2d_4">
      <g>
       <use xlink:href="#m84e00b5be1" x="92.1866" y="171.084908" style="stroke: #000000; stroke-width: 0.8"/>
      </g>
     </g>
     <g id="text_2">
      <!-- $\mathdefault{5}$ -->
      <g transform="translate(90.069509 183.619709) scale(0.08 -0.08)">
       <defs>
        <path id="CMR17-35" d="M 730 3750 
C 794 3724 1056 3641 1325 3641 
C 1920 3641 2246 3961 2432 4140 
C 2432 4191 2432 4224 2394 4224 
C 2387 4224 2374 4224 2323 4198 
C 2099 4102 1837 4032 1517 4032 
C 1325 4032 1037 4055 723 4191 
C 653 4224 640 4224 634 4224 
C 602 4224 595 4217 595 4090 
L 595 2231 
C 595 2113 595 2080 659 2080 
C 691 2080 704 2093 736 2139 
C 941 2435 1222 2560 1542 2560 
C 1766 2560 2246 2415 2246 1293 
C 2246 1087 2246 716 2054 422 
C 1894 159 1645 25 1370 25 
C 947 25 518 319 403 812 
C 429 806 480 793 506 793 
C 589 793 749 838 749 1036 
C 749 1209 627 1280 506 1280 
C 358 1280 262 1190 262 1011 
C 262 454 704 -128 1382 -128 
C 2042 -128 2669 441 2669 1267 
C 2669 2054 2170 2662 1549 2662 
C 1222 2662 947 2540 730 2304 
L 730 3750 
z
" transform="scale(0.015625)"/>
       </defs>
       <use xlink:href="#CMR17-35" transform="scale(0.996264)"/>
      </g>
     </g>
    </g>
    <g id="xtick_3">
     <g id="line2d_5">
      <path d="M 125.166361 171.084908 
L 125.166361 7.2 
" clip-path="url(#pa661e57cec)" style="fill: none; stroke: #b0b0b0; stroke-width: 0.8; stroke-linecap: square"/>
     </g>
     <g id="line2d_6">
      <g>
       <use xlink:href="#m84e00b5be1" x="125.166361" y="171.084908" style="stroke: #000000; stroke-width: 0.8"/>
      </g>
     </g>
     <g id="text_3">
      <!-- $\mathdefault{10}$ -->
      <g transform="translate(120.932178 183.619709) scale(0.08 -0.08)">
       <defs>
        <path id="CMR17-31" d="M 1702 4083 
C 1702 4217 1696 4224 1606 4224 
C 1357 3927 979 3833 621 3820 
C 602 3820 570 3820 563 3808 
C 557 3795 557 3782 557 3648 
C 755 3648 1088 3686 1344 3839 
L 1344 467 
C 1344 243 1331 166 781 166 
L 589 166 
L 589 0 
C 896 6 1216 12 1523 12 
C 1830 12 2150 6 2458 0 
L 2458 166 
L 2266 166 
C 1715 166 1702 236 1702 467 
L 1702 4083 
z
" transform="scale(0.015625)"/>
       </defs>
       <use xlink:href="#CMR17-31" transform="scale(0.996264)"/>
       <use xlink:href="#CMR17-30" transform="translate(45.690477 0) scale(0.996264)"/>
      </g>
     </g>
    </g>
    <g id="xtick_4">
     <g id="line2d_7">
      <path d="M 158.146123 171.084908 
L 158.146123 7.2 
" clip-path="url(#pa661e57cec)" style="fill: none; stroke: #b0b0b0; stroke-width: 0.8; stroke-linecap: square"/>
     </g>
     <g id="line2d_8">
      <g>
       <use xlink:href="#m84e00b5be1" x="158.146123" y="171.084908" style="stroke: #000000; stroke-width: 0.8"/>
      </g>
     </g>
     <g id="text_4">
      <!-- $\mathdefault{15}$ -->
      <g transform="translate(153.91194 183.619709) scale(0.08 -0.08)">
       <use xlink:href="#CMR17-31" transform="scale(0.996264)"/>
       <use xlink:href="#CMR17-35" transform="translate(45.690477 0) scale(0.996264)"/>
      </g>
     </g>
    </g>
    <g id="xtick_5">
     <g id="line2d_9">
      <path d="M 191.125884 171.084908 
L 191.125884 7.2 
" clip-path="url(#pa661e57cec)" style="fill: none; stroke: #b0b0b0; stroke-width: 0.8; stroke-linecap: square"/>
     </g>
     <g id="line2d_10">
      <g>
       <use xlink:href="#m84e00b5be1" x="191.125884" y="171.084908" style="stroke: #000000; stroke-width: 0.8"/>
      </g>
     </g>
     <g id="text_5">
      <!-- $\mathdefault{20}$ -->
      <g transform="translate(186.891701 183.619709) scale(0.08 -0.08)">
       <defs>
        <path id="CMR17-32" d="M 2669 990 
L 2554 990 
C 2490 537 2438 460 2413 422 
C 2381 371 1920 371 1830 371 
L 602 371 
C 832 620 1280 1073 1824 1596 
C 2214 1966 2669 2400 2669 3033 
C 2669 3788 2067 4224 1395 4224 
C 691 4224 262 3603 262 3027 
C 262 2777 448 2745 525 2745 
C 589 2745 781 2783 781 3007 
C 781 3206 614 3264 525 3264 
C 486 3264 448 3257 422 3244 
C 544 3788 915 4057 1306 4057 
C 1862 4057 2227 3616 2227 3033 
C 2227 2477 1901 1998 1536 1583 
L 262 147 
L 262 0 
L 2515 0 
L 2669 990 
z
" transform="scale(0.015625)"/>
       </defs>
       <use xlink:href="#CMR17-32" transform="scale(0.996264)"/>
       <use xlink:href="#CMR17-30" transform="translate(45.690477 0) scale(0.996264)"/>
      </g>
     </g>
    </g>
    <g id="xtick_6">
     <g id="line2d_11">
      <path d="M 224.105645 171.084908 
L 224.105645 7.2 
" clip-path="url(#pa661e57cec)" style="fill: none; stroke: #b0b0b0; stroke-width: 0.8; stroke-linecap: square"/>
     </g>
     <g id="line2d_12">
      <g>
       <use xlink:href="#m84e00b5be1" x="224.105645" y="171.084908" style="stroke: #000000; stroke-width: 0.8"/>
      </g>
     </g>
     <g id="text_6">
      <!-- $\mathdefault{25}$ -->
      <g transform="translate(219.871462 183.619709) scale(0.08 -0.08)">
       <use xlink:href="#CMR17-32" transform="scale(0.996264)"/>
       <use xlink:href="#CMR17-35" transform="translate(45.690477 0) scale(0.996264)"/>
      </g>
     </g>
    </g>
    <g id="xtick_7">
     <g id="line2d_13">
      <path d="M 257.085406 171.084908 
L 257.085406 7.2 
" clip-path="url(#pa661e57cec)" style="fill: none; stroke: #b0b0b0; stroke-width: 0.8; stroke-linecap: square"/>
     </g>
     <g id="line2d_14">
      <g>
       <use xlink:href="#m84e00b5be1" x="257.085406" y="171.084908" style="stroke: #000000; stroke-width: 0.8"/>
      </g>
     </g>
     <g id="text_7">
      <!-- $\mathdefault{30}$ -->
      <g transform="translate(252.851223 183.619709) scale(0.08 -0.08)">
       <defs>
        <path id="CMR17-33" d="M 1414 2176 
C 1984 2176 2234 1673 2234 1094 
C 2234 322 1824 25 1453 25 
C 1114 25 563 193 390 691 
C 422 678 454 678 486 678 
C 640 678 755 780 755 947 
C 755 1132 614 1216 486 1216 
C 378 1216 211 1164 211 927 
C 211 335 787 -128 1466 -128 
C 2176 -128 2720 432 2720 1087 
C 2720 1718 2208 2176 1600 2246 
C 2086 2347 2554 2776 2554 3353 
C 2554 3856 2048 4224 1472 4224 
C 890 4224 378 3862 378 3347 
C 378 3123 544 3084 627 3084 
C 762 3084 877 3167 877 3334 
C 877 3500 762 3584 627 3584 
C 602 3584 570 3584 544 3571 
C 730 3999 1235 4076 1459 4076 
C 1683 4076 2106 3966 2106 3347 
C 2106 3167 2080 2851 1862 2574 
C 1670 2329 1453 2316 1242 2297 
C 1210 2297 1062 2284 1037 2284 
C 992 2278 966 2272 966 2227 
C 966 2182 973 2176 1101 2176 
L 1414 2176 
z
" transform="scale(0.015625)"/>
       </defs>
       <use xlink:href="#CMR17-33" transform="scale(0.996264)"/>
       <use xlink:href="#CMR17-30" transform="translate(45.690477 0) scale(0.996264)"/>
      </g>
     </g>
    </g>
    <g id="xtick_8">
     <g id="line2d_15">
      <path d="M 290.065168 171.084908 
L 290.065168 7.2 
" clip-path="url(#pa661e57cec)" style="fill: none; stroke: #b0b0b0; stroke-width: 0.8; stroke-linecap: square"/>
     </g>
     <g id="line2d_16">
      <g>
       <use xlink:href="#m84e00b5be1" x="290.065168" y="171.084908" style="stroke: #000000; stroke-width: 0.8"/>
      </g>
     </g>
     <g id="text_8">
      <!-- $\mathdefault{35}$ -->
      <g transform="translate(285.830985 183.619709) scale(0.08 -0.08)">
       <use xlink:href="#CMR17-33" transform="scale(0.996264)"/>
       <use xlink:href="#CMR17-35" transform="translate(45.690477 0) scale(0.996264)"/>
      </g>
     </g>
    </g>
    <g id="xtick_9">
     <g id="line2d_17">
      <path d="M 323.044929 171.084908 
L 323.044929 7.2 
" clip-path="url(#pa661e57cec)" style="fill: none; stroke: #b0b0b0; stroke-width: 0.8; stroke-linecap: square"/>
     </g>
     <g id="line2d_18">
      <g>
       <use xlink:href="#m84e00b5be1" x="323.044929" y="171.084908" style="stroke: #000000; stroke-width: 0.8"/>
      </g>
     </g>
     <g id="text_9">
      <!-- $\mathdefault{40}$ -->
      <g transform="translate(318.810746 183.619709) scale(0.08 -0.08)">
       <defs>
        <path id="CMR17-34" d="M 2150 4147 
C 2150 4281 2144 4288 2029 4288 
L 128 1254 
L 128 1088 
L 1779 1088 
L 1779 460 
C 1779 230 1766 166 1318 166 
L 1197 166 
L 1197 0 
C 1402 12 1747 12 1965 12 
C 2182 12 2528 12 2733 0 
L 2733 166 
L 2611 166 
C 2163 166 2150 230 2150 460 
L 2150 1088 
L 2803 1088 
L 2803 1254 
L 2150 1254 
L 2150 4147 
z
M 1798 3723 
L 1798 1254 
L 256 1254 
L 1798 3723 
z
" transform="scale(0.015625)"/>
       </defs>
       <use xlink:href="#CMR17-34" transform="scale(0.996264)"/>
       <use xlink:href="#CMR17-30" transform="translate(45.690477 0) scale(0.996264)"/>
      </g>
     </g>
    </g>
    <g id="text_10">
     <!-- moment order -->
     <g transform="translate(157.220403 196.087954) scale(0.1 -0.1)">
      <defs>
       <path id="CMR17-6d" d="M 4326 1954 
C 4326 2276 4269 2816 3507 2816 
C 3072 2816 2771 2520 2656 2173 
L 2650 2173 
C 2573 2700 2195 2816 1837 2816 
C 1331 2816 1069 2424 973 2166 
L 966 2166 
L 966 2816 
L 211 2745 
L 211 2578 
C 589 2578 646 2540 646 2231 
L 646 443 
C 646 198 621 166 211 166 
L 211 0 
C 365 12 646 12 813 12 
C 979 12 1267 12 1421 0 
L 1421 166 
C 1011 166 986 192 986 443 
L 986 1678 
C 986 2269 1344 2713 1792 2713 
C 2266 2713 2317 2289 2317 1980 
L 2317 443 
C 2317 198 2291 166 1882 166 
L 1882 0 
C 2035 12 2317 12 2483 12 
C 2650 12 2938 12 3091 0 
L 3091 166 
C 2682 166 2656 192 2656 443 
L 2656 1678 
C 2656 2269 3014 2713 3462 2713 
C 3936 2713 3987 2289 3987 1980 
L 3987 443 
C 3987 198 3962 166 3552 166 
L 3552 0 
C 3706 12 3987 12 4154 12 
C 4320 12 4608 12 4762 0 
L 4762 166 
C 4352 166 4326 192 4326 443 
L 4326 1954 
z
" transform="scale(0.015625)"/>
       <path id="CMR17-6f" d="M 2758 1356 
C 2758 2176 2163 2816 1466 2816 
C 768 2816 173 2176 173 1356 
C 173 550 768 -64 1466 -64 
C 2163 -64 2758 550 2758 1356 
z
M 1466 51 
C 1165 51 909 230 762 480 
C 602 768 582 1126 582 1408 
C 582 1676 595 2009 762 2297 
C 890 2508 1139 2713 1466 2713 
C 1754 2713 1997 2553 2150 2329 
C 2349 2028 2349 1606 2349 1408 
C 2349 1158 2336 774 2163 467 
C 1984 172 1709 51 1466 51 
z
" transform="scale(0.015625)"/>
       <path id="CMR17-65" d="M 2438 1503 
C 2464 1529 2464 1542 2464 1606 
C 2464 2251 2118 2816 1389 2816 
C 710 2816 173 2175 173 1394 
C 173 554 781 -64 1459 -64 
C 2176 -64 2458 619 2458 755 
C 2458 800 2419 800 2406 800 
C 2362 800 2355 787 2330 709 
C 2189 270 1837 51 1504 51 
C 1229 51 954 206 781 490 
C 582 819 582 1200 582 1503 
L 2438 1503 
z
M 589 1600 
C 634 2511 1126 2713 1382 2713 
C 1818 2713 2112 2308 2118 1600 
L 589 1600 
z
" transform="scale(0.015625)"/>
       <path id="CMR17-6e" d="M 2656 1954 
C 2656 2282 2592 2816 1837 2816 
C 1331 2816 1069 2424 973 2166 
L 966 2166 
L 966 2816 
L 211 2745 
L 211 2578 
C 589 2578 646 2540 646 2231 
L 646 443 
C 646 198 621 166 211 166 
L 211 0 
C 365 12 646 12 813 12 
C 979 12 1267 12 1421 0 
L 1421 166 
C 1011 166 986 192 986 443 
L 986 1678 
C 986 2269 1344 2713 1792 2713 
C 2266 2713 2317 2289 2317 1980 
L 2317 443 
C 2317 198 2291 166 1882 166 
L 1882 0 
C 2035 12 2317 12 2483 12 
C 2650 12 2938 12 3091 0 
L 3091 166 
C 2682 166 2656 192 2656 443 
L 2656 1954 
z
" transform="scale(0.015625)"/>
       <path id="CMR17-74" d="M 966 2585 
L 1862 2585 
L 1862 2752 
L 966 2752 
L 966 3968 
L 851 3968 
C 838 3292 614 2700 70 2687 
L 70 2585 
L 627 2585 
L 627 778 
C 627 655 627 -64 1370 -64 
C 1747 -64 1965 308 1965 784 
L 1965 1151 
L 1850 1151 
L 1850 790 
C 1850 347 1677 51 1408 51 
C 1222 51 966 179 966 765 
L 966 2585 
z
" transform="scale(0.015625)"/>
       <path id="CMR17-72" d="M 960 1517 
C 960 2134 1222 2713 1702 2713 
C 1747 2713 1792 2707 1837 2687 
C 1837 2687 1696 2642 1696 2475 
C 1696 2321 1818 2257 1914 2257 
C 1990 2257 2131 2302 2131 2482 
C 2131 2687 1926 2816 1709 2816 
C 1222 2816 1011 2340 947 2115 
L 941 2115 
L 941 2816 
L 198 2745 
L 198 2578 
C 576 2578 634 2540 634 2231 
L 634 443 
C 634 198 608 166 198 166 
L 198 0 
C 352 12 646 12 813 12 
C 998 12 1325 12 1498 0 
L 1498 166 
C 1037 166 960 166 960 455 
L 960 1517 
z
" transform="scale(0.015625)"/>
       <path id="CMR17-64" d="M 1869 4345 
L 1869 4179 
C 2246 4179 2304 4141 2304 3843 
L 2304 2371 
C 2278 2403 2016 2816 1498 2816 
C 845 2816 211 2228 211 1376 
C 211 529 806 -64 1434 -64 
C 1978 -64 2259 361 2291 406 
L 2291 -64 
L 3066 -13 
L 3066 154 
C 2688 154 2630 193 2630 503 
L 2630 4416 
L 1869 4345 
z
M 2291 762 
C 2291 568 2176 393 2029 264 
C 1811 70 1594 38 1472 38 
C 1286 38 621 135 621 1369 
C 621 2636 1363 2713 1530 2713 
C 1824 2713 2061 2545 2208 2313 
C 2291 2177 2291 2157 2291 2041 
L 2291 762 
z
" transform="scale(0.015625)"/>
      </defs>
      <use xlink:href="#CMR17-6d" transform="scale(0.996264)"/>
      <use xlink:href="#CMR17-6f" transform="translate(76.91959 0) scale(0.996264)"/>
      <use xlink:href="#CMR17-6d" transform="translate(122.610067 0) scale(0.996264)"/>
      <use xlink:href="#CMR17-65" transform="translate(199.529657 0) scale(0.996264)"/>
      <use xlink:href="#CMR17-6e" transform="translate(240.015317 0) scale(0.996264)"/>
      <use xlink:href="#CMR17-74" transform="translate(288.308233 0) scale(0.996264)"/>
      <use xlink:href="#CMR17-6f" transform="translate(353.664967 0) scale(0.996264)"/>
      <use xlink:href="#CMR17-72" transform="translate(399.355444 0) scale(0.996264)"/>
      <use xlink:href="#CMR17-64" transform="translate(434.636212 0) scale(0.996264)"/>
      <use xlink:href="#CMR17-65" transform="translate(485.531582 0) scale(0.996264)"/>
      <use xlink:href="#CMR17-72" transform="translate(526.017242 0) scale(0.996264)"/>
     </g>
    </g>
   </g>
   <g id="matplotlib.axis_2">
    <g id="ytick_1">
     <g id="line2d_19">
      <path d="M 46.344732 163.635594 
L 329.311083 163.635594 
" clip-path="url(#pa661e57cec)" style="fill: none; stroke: #b0b0b0; stroke-width: 0.8; stroke-linecap: square"/>
     </g>
     <g id="line2d_20">
      <defs>
       <path id="ma25f96d574" d="M 0 0 
L -3.5 0 
" style="stroke: #000000; stroke-width: 0.8"/>
      </defs>
      <g>
       <use xlink:href="#ma25f96d574" x="46.344732" y="163.635594" style="stroke: #000000; stroke-width: 0.8"/>
      </g>
     </g>
     <g id="text_11">
      <!-- $\mathdefault{0.000}$ -->
      <g transform="translate(20.055677 166.402995) scale(0.08 -0.08)">
       <defs>
        <path id="CMMI12-3a" d="M 1178 307 
C 1178 492 1024 620 870 620 
C 685 620 557 467 557 313 
C 557 128 710 0 864 0 
C 1050 0 1178 153 1178 307 
z
" transform="scale(0.015625)"/>
       </defs>
       <use xlink:href="#CMR17-30" transform="scale(0.996264)"/>
       <use xlink:href="#CMMI12-3a" transform="translate(45.690477 0) scale(0.996264)"/>
       <use xlink:href="#CMR17-30" transform="translate(72.787654 0) scale(0.996264)"/>
       <use xlink:href="#CMR17-30" transform="translate(118.478131 0) scale(0.996264)"/>
       <use xlink:href="#CMR17-30" transform="translate(164.168608 0) scale(0.996264)"/>
      </g>
     </g>
    </g>
    <g id="ytick_2">
     <g id="line2d_21">
      <path d="M 46.344732 136.671846 
L 329.311083 136.671846 
" clip-path="url(#pa661e57cec)" style="fill: none; stroke: #b0b0b0; stroke-width: 0.8; stroke-linecap: square"/>
     </g>
     <g id="line2d_22">
      <g>
       <use xlink:href="#ma25f96d574" x="46.344732" y="136.671846" style="stroke: #000000; stroke-width: 0.8"/>
      </g>
     </g>
     <g id="text_12">
      <!-- $\mathdefault{0.002}$ -->
      <g transform="translate(20.055677 139.439247) scale(0.08 -0.08)">
       <use xlink:href="#CMR17-30" transform="scale(0.996264)"/>
       <use xlink:href="#CMMI12-3a" transform="translate(45.690477 0) scale(0.996264)"/>
       <use xlink:href="#CMR17-30" transform="translate(72.787654 0) scale(0.996264)"/>
       <use xlink:href="#CMR17-30" transform="translate(118.478131 0) scale(0.996264)"/>
       <use xlink:href="#CMR17-32" transform="translate(164.168608 0) scale(0.996264)"/>
      </g>
     </g>
    </g>
    <g id="ytick_3">
     <g id="line2d_23">
      <path d="M 46.344732 109.708098 
L 329.311083 109.708098 
" clip-path="url(#pa661e57cec)" style="fill: none; stroke: #b0b0b0; stroke-width: 0.8; stroke-linecap: square"/>
     </g>
     <g id="line2d_24">
      <g>
       <use xlink:href="#ma25f96d574" x="46.344732" y="109.708098" style="stroke: #000000; stroke-width: 0.8"/>
      </g>
     </g>
     <g id="text_13">
      <!-- $\mathdefault{0.004}$ -->
      <g transform="translate(20.055677 112.475499) scale(0.08 -0.08)">
       <use xlink:href="#CMR17-30" transform="scale(0.996264)"/>
       <use xlink:href="#CMMI12-3a" transform="translate(45.690477 0) scale(0.996264)"/>
       <use xlink:href="#CMR17-30" transform="translate(72.787654 0) scale(0.996264)"/>
       <use xlink:href="#CMR17-30" transform="translate(118.478131 0) scale(0.996264)"/>
       <use xlink:href="#CMR17-34" transform="translate(164.168608 0) scale(0.996264)"/>
      </g>
     </g>
    </g>
    <g id="ytick_4">
     <g id="line2d_25">
      <path d="M 46.344732 82.744351 
L 329.311083 82.744351 
" clip-path="url(#pa661e57cec)" style="fill: none; stroke: #b0b0b0; stroke-width: 0.8; stroke-linecap: square"/>
     </g>
     <g id="line2d_26">
      <g>
       <use xlink:href="#ma25f96d574" x="46.344732" y="82.744351" style="stroke: #000000; stroke-width: 0.8"/>
      </g>
     </g>
     <g id="text_14">
      <!-- $\mathdefault{0.006}$ -->
      <g transform="translate(20.055677 85.511752) scale(0.08 -0.08)">
       <defs>
        <path id="CMR17-36" d="M 678 2198 
C 678 3712 1395 4076 1811 4076 
C 1946 4076 2272 4049 2400 3782 
C 2298 3782 2106 3782 2106 3558 
C 2106 3385 2246 3328 2336 3328 
C 2394 3328 2566 3353 2566 3571 
C 2566 3987 2246 4224 1805 4224 
C 1043 4224 243 3411 243 2011 
C 243 257 966 -128 1478 -128 
C 2099 -128 2688 431 2688 1295 
C 2688 2101 2170 2688 1517 2688 
C 1126 2688 838 2430 678 1979 
L 678 2198 
z
M 1478 25 
C 691 25 691 1212 691 1450 
C 691 1914 909 2585 1504 2585 
C 1613 2585 1926 2585 2138 2140 
C 2253 1889 2253 1624 2253 1302 
C 2253 954 2253 696 2118 438 
C 1978 173 1773 25 1478 25 
z
" transform="scale(0.015625)"/>
       </defs>
       <use xlink:href="#CMR17-30" transform="scale(0.996264)"/>
       <use xlink:href="#CMMI12-3a" transform="translate(45.690477 0) scale(0.996264)"/>
       <use xlink:href="#CMR17-30" transform="translate(72.787654 0) scale(0.996264)"/>
       <use xlink:href="#CMR17-30" transform="translate(118.478131 0) scale(0.996264)"/>
       <use xlink:href="#CMR17-36" transform="translate(164.168608 0) scale(0.996264)"/>
      </g>
     </g>
    </g>
    <g id="ytick_5">
     <g id="line2d_27">
      <path d="M 46.344732 55.780603 
L 329.311083 55.780603 
" clip-path="url(#pa661e57cec)" style="fill: none; stroke: #b0b0b0; stroke-width: 0.8; stroke-linecap: square"/>
     </g>
     <g id="line2d_28">
      <g>
       <use xlink:href="#ma25f96d574" x="46.344732" y="55.780603" style="stroke: #000000; stroke-width: 0.8"/>
      </g>
     </g>
     <g id="text_15">
      <!-- $\mathdefault{0.008}$ -->
      <g transform="translate(20.055677 58.548004) scale(0.08 -0.08)">
       <defs>
        <path id="CMR17-38" d="M 1741 2289 
C 2144 2494 2554 2803 2554 3298 
C 2554 3884 1990 4224 1472 4224 
C 890 4224 378 3800 378 3215 
C 378 3054 416 2777 666 2533 
C 730 2469 998 2276 1171 2154 
C 883 2006 211 1652 211 945 
C 211 282 838 -128 1459 -128 
C 2144 -128 2720 366 2720 1022 
C 2720 1607 2330 1877 2074 2051 
L 1741 2289 
z
M 902 2855 
C 851 2887 595 3086 595 3388 
C 595 3781 998 4076 1459 4076 
C 1965 4076 2336 3716 2336 3298 
C 2336 2700 1670 2359 1638 2359 
C 1632 2359 1626 2359 1574 2398 
L 902 2855 
z
M 2080 1536 
C 2176 1466 2483 1253 2483 861 
C 2483 385 2010 25 1472 25 
C 890 25 448 443 448 951 
C 448 1459 838 1884 1280 2083 
L 2080 1536 
z
" transform="scale(0.015625)"/>
       </defs>
       <use xlink:href="#CMR17-30" transform="scale(0.996264)"/>
       <use xlink:href="#CMMI12-3a" transform="translate(45.690477 0) scale(0.996264)"/>
       <use xlink:href="#CMR17-30" transform="translate(72.787654 0) scale(0.996264)"/>
       <use xlink:href="#CMR17-30" transform="translate(118.478131 0) scale(0.996264)"/>
       <use xlink:href="#CMR17-38" transform="translate(164.168608 0) scale(0.996264)"/>
      </g>
     </g>
    </g>
    <g id="ytick_6">
     <g id="line2d_29">
      <path d="M 46.344732 28.816856 
L 329.311083 28.816856 
" clip-path="url(#pa661e57cec)" style="fill: none; stroke: #b0b0b0; stroke-width: 0.8; stroke-linecap: square"/>
     </g>
     <g id="line2d_30">
      <g>
       <use xlink:href="#ma25f96d574" x="46.344732" y="28.816856" style="stroke: #000000; stroke-width: 0.8"/>
      </g>
     </g>
     <g id="text_16">
      <!-- $\mathdefault{0.010}$ -->
      <g transform="translate(20.055677 31.584256) scale(0.08 -0.08)">
       <use xlink:href="#CMR17-30" transform="scale(0.996264)"/>
       <use xlink:href="#CMMI12-3a" transform="translate(45.690477 0) scale(0.996264)"/>
       <use xlink:href="#CMR17-30" transform="translate(72.787654 0) scale(0.996264)"/>
       <use xlink:href="#CMR17-31" transform="translate(118.478131 0) scale(0.996264)"/>
       <use xlink:href="#CMR17-30" transform="translate(164.168608 0) scale(0.996264)"/>
      </g>
     </g>
    </g>
    <g id="text_17">
     <!-- relative error -->
     <g transform="translate(14.118498 117.425324) rotate(-90) scale(0.1 -0.1)">
      <defs>
       <path id="CMR17-6c" d="M 979 4416 
L 218 4345 
L 218 4179 
C 595 4179 653 4141 653 3835 
L 653 439 
C 653 198 627 166 218 166 
L 218 0 
C 371 12 653 12 813 12 
C 979 12 1261 12 1414 0 
L 1414 166 
C 1005 166 979 191 979 439 
L 979 4416 
z
" transform="scale(0.015625)"/>
       <path id="CMR17-61" d="M 2304 1656 
C 2304 2048 2304 2275 2035 2534 
C 1798 2751 1523 2816 1306 2816 
C 800 2816 435 2408 435 1977 
C 435 1740 627 1728 666 1728 
C 749 1728 896 1779 896 1958 
C 896 2118 774 2188 666 2188 
C 640 2188 608 2182 589 2176 
C 723 2594 1069 2713 1293 2713 
C 1613 2713 1965 2421 1965 1875 
L 1965 1632 
C 1587 1619 1133 1568 774 1373 
C 371 1147 256 822 256 576 
C 256 77 832 -64 1171 -64 
C 1523 -64 1850 135 1990 505 
C 2003 219 2182 -39 2464 -39 
C 2598 -39 2938 51 2938 563 
L 2938 926 
L 2822 926 
L 2822 557 
C 2822 161 2650 109 2566 109 
C 2304 109 2304 446 2304 732 
L 2304 1656 
z
M 1965 887 
C 1965 323 1568 38 1216 38 
C 896 38 646 278 646 576 
C 646 771 730 1114 1101 1322 
C 1408 1497 1760 1523 1965 1536 
L 1965 887 
z
" transform="scale(0.015625)"/>
       <path id="CMR17-69" d="M 992 3961 
C 992 4102 877 4224 730 4224 
C 589 4224 467 4108 467 3961 
C 467 3820 582 3699 730 3699 
C 870 3699 992 3814 992 3961 
z
M 243 2745 
L 243 2579 
C 602 2579 653 2540 653 2231 
L 653 443 
C 653 198 627 166 218 166 
L 218 0 
C 371 12 646 12 806 12 
C 960 12 1222 12 1370 0 
L 1370 166 
C 992 166 979 205 979 436 
L 979 2816 
L 243 2745 
z
" transform="scale(0.015625)"/>
       <path id="CMR17-76" d="M 2502 2173 
C 2560 2315 2662 2572 3034 2585 
L 3034 2752 
C 2912 2745 2752 2739 2630 2739 
C 2496 2739 2285 2739 2157 2752 
L 2157 2585 
C 2317 2572 2406 2495 2406 2328 
C 2406 2270 2406 2257 2368 2167 
L 1664 379 
L 902 2308 
C 864 2392 864 2405 864 2431 
C 864 2585 1075 2585 1171 2585 
L 1171 2752 
C 1018 2739 736 2739 576 2739 
C 403 2739 205 2739 64 2752 
L 64 2585 
C 307 2585 442 2585 518 2386 
L 1446 44 
C 1485 -52 1491 -64 1549 -64 
C 1606 -64 1613 -52 1651 44 
L 2502 2173 
z
" transform="scale(0.015625)"/>
      </defs>
      <use xlink:href="#CMR17-72" transform="scale(0.996264)"/>
      <use xlink:href="#CMR17-65" transform="translate(35.280768 0) scale(0.996264)"/>
      <use xlink:href="#CMR17-6c" transform="translate(75.766428 0) scale(0.996264)"/>
      <use xlink:href="#CMR17-61" transform="translate(100.637487 0) scale(0.996264)"/>
      <use xlink:href="#CMR17-74" transform="translate(146.327964 0) scale(0.996264)"/>
      <use xlink:href="#CMR17-69" transform="translate(181.608732 0) scale(0.996264)"/>
      <use xlink:href="#CMR17-76" transform="translate(206.47979 0) scale(0.996264)"/>
      <use xlink:href="#CMR17-65" transform="translate(252.170252 0) scale(0.996264)"/>
      <use xlink:href="#CMR17-65" transform="translate(322.731879 0) scale(0.996264)"/>
      <use xlink:href="#CMR17-72" transform="translate(363.217539 0) scale(0.996264)"/>
      <use xlink:href="#CMR17-72" transform="translate(398.498307 0) scale(0.996264)"/>
      <use xlink:href="#CMR17-6f" transform="translate(433.779075 0) scale(0.996264)"/>
      <use xlink:href="#CMR17-72" transform="translate(479.469552 0) scale(0.996264)"/>
     </g>
    </g>
   </g>
   <g id="line2d_31">
    <path d="M 59.206839 163.635594 
L 65.802791 163.635594 
L 72.398743 163.635594 
L 78.994696 163.635594 
L 85.590648 163.635594 
L 92.1866 163.635594 
L 98.782552 163.635594 
L 105.378505 163.635594 
L 111.974457 163.635594 
L 118.570409 163.635594 
L 125.166361 163.635594 
L 131.762314 163.635594 
L 138.358266 163.635594 
L 144.954218 163.635594 
L 151.55017 163.635594 
L 158.146123 163.635594 
L 164.742075 163.635594 
L 171.338027 163.635594 
L 177.933979 163.635594 
L 184.529932 163.635594 
L 191.125884 163.635594 
L 197.721836 163.635594 
L 204.317788 163.635594 
L 210.913741 163.635594 
L 217.509693 163.635594 
L 224.105645 163.635594 
L 230.701597 163.635594 
L 237.29755 163.635594 
L 243.893502 163.635594 
L 250.489454 163.635594 
L 257.085406 163.635594 
L 263.681359 163.635594 
L 270.277311 163.635594 
L 276.873263 163.635594 
L 283.469215 163.635594 
L 290.065168 163.635594 
L 296.66112 163.635593 
L 303.257072 163.635593 
L 309.853024 163.635593 
L 316.448977 163.635592 
" clip-path="url(#pa661e57cec)" style="fill: none; stroke: #1f77b4; stroke-width: 1.5; stroke-linecap: square"/>
   </g>
   <g id="line2d_32">
    <path d="M 59.206839 163.635285 
L 65.802791 163.633627 
L 72.398743 163.632614 
L 78.994696 163.608113 
L 85.590648 163.598914 
L 92.1866 163.627953 
L 98.782552 163.479141 
L 105.378505 163.170308 
L 111.974457 163.226696 
L 118.570409 163.550607 
L 125.166361 162.449864 
L 131.762314 160.966438 
L 138.358266 160.997214 
L 144.954218 162.467169 
L 151.55017 161.168128 
L 158.146123 156.178309 
L 164.742075 153.425885 
L 171.338027 152.96952 
L 177.933979 158.311182 
L 184.529932 159.3925 
L 191.125884 148.205899 
L 197.721836 136.898491 
L 204.317788 132.60032 
L 210.913741 134.589013 
L 217.509693 146.904001 
L 224.105645 160.551429 
L 230.701597 137.157663 
L 237.29755 112.827569 
L 243.893502 96.756466 
L 250.489454 89.116723 
L 257.085406 97.105563 
L 263.681359 117.961175 
L 270.277311 151.328488 
L 276.873263 134.234086 
L 283.469215 92.093994 
L 290.065168 52.730546 
L 296.66112 26.766474 
L 303.257072 14.649314 
L 309.853024 23.615287 
L 316.448977 50.981713 
" clip-path="url(#pa661e57cec)" style="fill: none; stroke: #ff7f0e; stroke-width: 1.5; stroke-linecap: square"/>
   </g>
   <g id="patch_3">
    <path d="M 46.344732 171.084908 
L 46.344732 7.2 
" style="fill: none; stroke: #000000; stroke-width: 0.8; stroke-linejoin: miter; stroke-linecap: square"/>
   </g>
   <g id="patch_4">
    <path d="M 329.311083 171.084908 
L 329.311083 7.2 
" style="fill: none; stroke: #000000; stroke-width: 0.8; stroke-linejoin: miter; stroke-linecap: square"/>
   </g>
   <g id="patch_5">
    <path d="M 46.344732 171.084908 
L 329.311083 171.084908 
" style="fill: none; stroke: #000000; stroke-width: 0.8; stroke-linejoin: miter; stroke-linecap: square"/>
   </g>
   <g id="patch_6">
    <path d="M 46.344732 7.2 
L 329.311083 7.2 
" style="fill: none; stroke: #000000; stroke-width: 0.8; stroke-linejoin: miter; stroke-linecap: square"/>
   </g>
   <g id="legend_1">
    <g id="patch_7">
     <path d="M 51.944732 35.899491 
L 135.219565 35.899491 
Q 136.819565 35.899491 136.819565 34.299491 
L 136.819565 12.8 
Q 136.819565 11.2 135.219565 11.2 
L 51.944732 11.2 
Q 50.344732 11.2 50.344732 12.8 
L 50.344732 34.299491 
Q 50.344732 35.899491 51.944732 35.899491 
z
" style="fill: #ffffff; opacity: 0.8; stroke: #cccccc; stroke-linejoin: miter"/>
    </g>
    <g id="line2d_33">
     <path d="M 53.544732 17.2 
L 61.544732 17.2 
L 69.544732 17.2 
" style="fill: none; stroke: #1f77b4; stroke-width: 1.5; stroke-linecap: square"/>
    </g>
    <g id="text_18">
     <!-- Guass-Hermite -->
     <g transform="translate(75.944732 20) scale(0.08 -0.08)">
      <defs>
       <path id="CMR17-47" d="M 3974 1258 
C 3974 1503 3994 1536 4390 1536 
L 4390 1702 
C 4237 1689 3891 1689 3718 1689 
C 3539 1689 3040 1696 2797 1702 
L 2797 1536 
L 2989 1536 
C 3539 1536 3552 1464 3552 1232 
L 3552 806 
C 3552 96 2720 38 2522 38 
C 1862 38 781 496 781 2179 
C 781 3862 1843 4313 2464 4313 
C 3187 4313 3712 3681 3834 2785 
C 3846 2708 3846 2695 3904 2695 
C 3974 2695 3974 2708 3974 2824 
L 3974 4351 
C 3974 4467 3968 4473 3930 4473 
C 3904 4473 3898 4467 3853 4390 
L 3571 3849 
C 3258 4249 2874 4480 2381 4480 
C 1286 4480 294 3507 294 2179 
C 294 858 1267 -128 2394 -128 
C 2912 -128 3418 57 3616 425 
C 3725 161 3904 -20 3936 -20 
C 3968 -20 3974 -13 3974 102 
L 3974 1258 
z
" transform="scale(0.015625)"/>
       <path id="CMR17-75" d="M 1882 2745 
L 1882 2579 
C 2259 2579 2317 2540 2317 2229 
L 2317 1053 
C 2317 510 2029 38 1555 38 
C 1030 38 986 355 986 691 
L 986 2816 
L 211 2745 
L 211 2579 
C 467 2579 640 2579 646 2320 
L 646 1079 
C 646 646 646 368 813 187 
C 896 103 1056 -64 1517 -64 
C 2061 -64 2272 400 2323 536 
L 2330 536 
L 2330 -64 
L 3091 -13 
L 3091 154 
C 2714 154 2656 193 2656 503 
L 2656 2816 
L 1882 2745 
z
" transform="scale(0.015625)"/>
       <path id="CMR17-73" d="M 1978 2688 
C 1978 2803 1971 2809 1933 2809 
C 1907 2809 1901 2803 1824 2707 
C 1805 2681 1747 2617 1728 2592 
C 1523 2809 1235 2816 1126 2816 
C 416 2816 160 2444 160 2073 
C 160 1497 813 1363 998 1324 
C 1402 1241 1542 1216 1677 1100 
C 1760 1024 1901 883 1901 652 
C 1901 384 1747 38 1158 38 
C 602 38 403 460 288 1024 
C 269 1113 269 1120 218 1120 
C 166 1120 160 1113 160 985 
L 160 64 
C 160 -52 166 -58 205 -58 
C 237 -58 243 -52 275 0 
C 314 57 410 211 448 275 
C 576 102 800 -64 1158 -64 
C 1792 -64 2131 281 2131 780 
C 2131 1107 1958 1280 1875 1356 
C 1683 1555 1459 1600 1190 1651 
C 838 1728 390 1817 390 2208 
C 390 2374 480 2726 1126 2726 
C 1811 2726 1850 2086 1862 1881 
C 1869 1849 1901 1843 1920 1843 
C 1978 1843 1978 1862 1978 1971 
L 1978 2688 
z
" transform="scale(0.015625)"/>
       <path id="CMR17-2d" d="M 1632 1254 
L 1632 1536 
L 26 1536 
L 26 1254 
L 1632 1254 
z
" transform="scale(0.015625)"/>
       <path id="CMR17-48" d="M 3590 3898 
C 3590 4185 3661 4185 4102 4185 
L 4102 4352 
C 3917 4339 3578 4339 3379 4339 
C 3181 4339 2842 4339 2656 4352 
L 2656 4185 
C 3098 4185 3168 4185 3168 3898 
L 3168 2342 
L 1261 2342 
L 1261 3898 
C 1261 4185 1331 4185 1773 4185 
L 1773 4352 
C 1587 4339 1248 4339 1050 4339 
C 851 4339 512 4339 326 4352 
L 326 4185 
C 768 4185 838 4185 838 3898 
L 838 452 
C 838 166 768 166 326 166 
L 326 0 
C 512 12 851 12 1050 12 
C 1248 12 1587 12 1773 0 
L 1773 166 
C 1331 166 1261 166 1261 452 
L 1261 2176 
L 3168 2176 
L 3168 452 
C 3168 166 3098 166 2656 166 
L 2656 0 
C 2842 12 3181 12 3379 12 
C 3578 12 3917 12 4102 0 
L 4102 166 
C 3661 166 3590 166 3590 452 
L 3590 3898 
z
" transform="scale(0.015625)"/>
      </defs>
      <use xlink:href="#CMR17-47" transform="scale(0.996264)"/>
      <use xlink:href="#CMR17-75" transform="translate(72.355346 0) scale(0.996264)"/>
      <use xlink:href="#CMR17-61" transform="translate(123.250716 0) scale(0.996264)"/>
      <use xlink:href="#CMR17-73" transform="translate(168.941193 0) scale(0.996264)"/>
      <use xlink:href="#CMR17-73" transform="translate(204.74253 0) scale(0.996264)"/>
      <use xlink:href="#CMR17-2d" transform="translate(240.543868 0) scale(0.996264)"/>
      <use xlink:href="#CMR17-48" transform="translate(270.619834 0) scale(0.996264)"/>
      <use xlink:href="#CMR17-65" transform="translate(339.692264 0) scale(0.996264)"/>
      <use xlink:href="#CMR17-72" transform="translate(380.177925 0) scale(0.996264)"/>
      <use xlink:href="#CMR17-6d" transform="translate(415.458693 0) scale(0.996264)"/>
      <use xlink:href="#CMR17-69" transform="translate(492.378282 0) scale(0.996264)"/>
      <use xlink:href="#CMR17-74" transform="translate(517.249341 0) scale(0.996264)"/>
      <use xlink:href="#CMR17-65" transform="translate(552.530109 0) scale(0.996264)"/>
     </g>
    </g>
    <g id="line2d_34">
     <path d="M 53.544732 28.349746 
L 61.544732 28.349746 
L 69.544732 28.349746 
" style="fill: none; stroke: #ff7f0e; stroke-width: 1.5; stroke-linecap: square"/>
    </g>
    <g id="text_19">
     <!-- Guass-Laguerre -->
     <g transform="translate(75.944732 31.149746) scale(0.08 -0.08)">
      <defs>
       <path id="CMR17-4c" d="M 3469 1612 
L 3354 1612 
C 3302 981 3219 166 2125 166 
L 1530 166 
C 1274 166 1261 198 1261 414 
L 1261 3892 
C 1261 4121 1274 4185 1760 4185 
L 1901 4185 
L 1901 4352 
C 1638 4339 1331 4339 1069 4339 
C 870 4339 512 4339 326 4352 
L 326 4185 
C 768 4185 838 4185 838 3898 
L 838 453 
C 838 166 768 166 326 166 
L 326 0 
L 3315 0 
L 3469 1612 
z
" transform="scale(0.015625)"/>
       <path id="CMR17-67" d="M 710 1165 
C 832 1068 1043 960 1299 960 
C 1805 960 2240 1359 2240 1895 
C 2240 2063 2189 2321 1997 2521 
C 2176 2713 2438 2777 2586 2777 
C 2611 2777 2650 2777 2682 2758 
C 2656 2751 2598 2726 2598 2623 
C 2598 2540 2656 2483 2739 2483 
C 2835 2483 2886 2547 2886 2630 
C 2886 2751 2790 2880 2586 2880 
C 2330 2880 2106 2758 1926 2591 
C 1734 2764 1504 2828 1299 2828 
C 794 2828 358 2431 358 1895 
C 358 1527 570 1294 634 1230 
C 442 1004 442 742 442 710 
C 442 544 506 300 723 166 
C 390 82 128 -184 128 -517 
C 128 -996 736 -1344 1466 -1344 
C 2170 -1344 2803 -1009 2803 -510 
C 2803 384 1856 384 1363 384 
C 1216 384 954 384 922 390 
C 723 422 589 601 589 825 
C 589 883 589 1024 710 1165 
z
M 1299 1068 
C 736 1068 736 1766 736 1895 
C 736 2024 736 2719 1299 2719 
C 1862 2719 1862 2024 1862 1895 
C 1862 1766 1862 1068 1299 1068 
z
M 1466 -1236 
C 826 -1236 384 -883 384 -517 
C 384 -311 493 -118 634 -11 
C 794 102 858 102 1293 102 
C 1818 102 2547 102 2547 -517 
C 2547 -883 2106 -1236 1466 -1236 
z
" transform="scale(0.015625)"/>
      </defs>
      <use xlink:href="#CMR17-47" transform="scale(0.996264)"/>
      <use xlink:href="#CMR17-75" transform="translate(72.355346 0) scale(0.996264)"/>
      <use xlink:href="#CMR17-61" transform="translate(123.250716 0) scale(0.996264)"/>
      <use xlink:href="#CMR17-73" transform="translate(168.941193 0) scale(0.996264)"/>
      <use xlink:href="#CMR17-73" transform="translate(204.74253 0) scale(0.996264)"/>
      <use xlink:href="#CMR17-2d" transform="translate(240.543868 0) scale(0.996264)"/>
      <use xlink:href="#CMR17-4c" transform="translate(270.619834 0) scale(0.996264)"/>
      <use xlink:href="#CMR17-61" transform="translate(328.001242 0) scale(0.996264)"/>
      <use xlink:href="#CMR17-67" transform="translate(373.691719 0) scale(0.996264)"/>
      <use xlink:href="#CMR17-75" transform="translate(419.382197 0) scale(0.996264)"/>
      <use xlink:href="#CMR17-65" transform="translate(470.277566 0) scale(0.996264)"/>
      <use xlink:href="#CMR17-72" transform="translate(510.763227 0) scale(0.996264)"/>
      <use xlink:href="#CMR17-72" transform="translate(546.043995 0) scale(0.996264)"/>
      <use xlink:href="#CMR17-65" transform="translate(581.324762 0) scale(0.996264)"/>
     </g>
    </g>
   </g>
  </g>
 </g>
 <defs>
  <clipPath id="pa661e57cec">
   <rect x="46.344732" y="7.2" width="282.966352" height="163.884908"/>
  </clipPath>
 </defs>
</svg>
